<?xml version="1.0" encoding="UTF-8" standalone="no"?><!DOCTYPE svg PUBLIC "-//W3C//DTD SVG 1.1//EN" "http://www.w3.org/Graphics/SVG/1.1/DTD/svg11.dtd"><svg width="100%" height="100%" viewBox="0 0 5934 6021" version="1.1" xmlns="http://www.w3.org/2000/svg" xmlns:xlink="http://www.w3.org/1999/xlink" xml:space="preserve" xmlns:serif="http://www.serif.com/" style="fill-rule:evenodd;clip-rule:evenodd;stroke-linejoin:round;stroke-miterlimit:2;"><g id="Background"><path d="M8277.604,6302.072l-11131.771,0c-19.454,-47.748 0,-103.117 0,-154.676l0,-6239.062c36.635,-31.207 44.4,0 601.562,0l11131.759,0c27.694,39.358 0,45.209 0,601.562l0,5792.176c-36.634,31.207 -44.399,0 -601.551,0Z" style="fill:#000100;"/><path d="M1154.471,4107.806c-0.044,-362.851 -0.088,-725.701 -0.132,-1088.552c0.324,-926.522 -1.673,-926.472 3.836,-941.131c9.704,-25.823 1836.123,-1084.366 1848.356,-1088.175c28.164,-8.769 1849.801,1074.311 1855.68,1079.02c17.382,13.922 9.58,2076.272 5.257,2086.824c-7.324,17.879 -1844.386,1078.478 -1848.463,1079.453c-41.767,9.988 -1300.961,-746.543 -1412.762,-813.714c-411.194,-247.048 -444.664,-227.513 -451.773,-313.725Z" style="fill:#05e8f7;"/><path d="M1826.563,3821.29c-154.271,-0.42 -158.398,10.396 -176.053,-7.458c-17.886,-18.087 -6.467,-20.418 -6.484,-129.979c-0.195,-1262.992 -5.565,-1279.565 22.1,-1283.482c4.427,-0.627 875.318,-0.298 905.229,-0.146c55.133,0.28 124.136,85.516 201.707,165.375c47.777,49.187 47.367,58.898 43.027,396.33c-0.779,60.522 -22.919,49.888 -101.849,130.613c-33.258,34.014 3.607,34.213 86.029,121.756c20.113,21.363 20.397,25.257 16.088,366.418c-0.298,23.628 -0.56,44.355 -191.965,224.488c-22.902,21.554 -88.315,15.856 -797.829,16.085Z" style="fill:#010202;"/><path d="M3013.062,3557.874c-0.28,-90.812 -3.163,-1025.974 0.215,-1135.159c0.782,-25.291 62.136,-24.883 279.973,-23.304c68.31,0.495 316.951,522.882 394.237,638.619c29.67,44.43 32.211,-14.91 346.004,-571.201c50.004,-88.647 84.48,-70.225 325.41,-66.661c22.92,0.339 22.695,179.427 22.676,195.144c-1.327,1059.67 2.639,1198.644 -3.015,1213.155c-8.815,22.625 -273.995,13.048 -280.393,8.708c-15.727,-10.667 -6.028,-844.172 -5.284,-877.725c1.849,-83.34 -168.163,263.006 -286.896,467.568c-16.963,29.226 -192.752,37.614 -221.317,-12.267c-244.275,-426.558 -237.584,-428.417 -259.212,-465.115c-35.304,-59.903 4.571,35.12 -19.64,868.932c-1.031,35.497 -189.348,22.922 -264.645,22.108c-43.901,-0.475 -28.379,-166.023 -28.113,-262.801Z" style="fill:#010202;"/><path d="M2124.384,3230.762c211.185,0.584 396.086,-26.703 397.843,97.882c1.731,122.793 43.337,139.238 -45.776,225.75c-21.092,20.476 -541.053,34.725 -542.075,-8.38c-7.097,-299.066 -8.164,-309.824 16.679,-313.536c0,0 159.464,-1.579 173.33,-1.716Z" style="fill:#09e7f5;"/><path d="M1934.276,2881.792c0.009,-30.772 -9.945,-225.691 17.557,-232.215c27.603,-6.548 443.52,-1.48 482.084,-1.01c92.492,1.127 139.931,224.962 42.818,321.616c-29.752,29.611 -35.643,27.951 -524.457,16.072c-16.4,-0.399 -9.8,-9.089 -18.003,-104.463Z" style="fill:#0ae6f4;"/></g></svg>