<svg xmlns="http://www.w3.org/2000/svg" viewBox="0 0 850 300" width="850" height="300" preserveAspectRatio="xMidYMid meet">
  <defs>
    <linearGradient id="bodyGradient" x1="0%" y1="0%" x2="100%" y2="100%">
      <stop offset="0%" stop-color="#4F46E5" /> <stop offset="100%" stop-color="#06B6D4" /> </linearGradient>

    <linearGradient id="textGradientBug" x1="0%" y1="0%" x2="0%" y2="100%">
      <stop offset="0%" stop-color="#1E293B" /> 
      <stop offset="100%" stop-color="#475569" />
    </linearGradient>

    <linearGradient id="textGradientMohol" x1="0%" y1="0%" x2="0%" y2="100%">
      <stop offset="0%" stop-color="#4F46E5" />
      <stop offset="100%" stop-color="#7C3AED" />
    </linearGradient>
    
    <linearGradient id="scanLine" x1="0%" y1="0%" x2="100%" y2="0%">
        <stop offset="0%" stop-color="rgba(255,255,255,0)" />
        <stop offset="50%" stop-color="rgba(255,255,255,0.7)" /> 
        <stop offset="100%" stop-color="rgba(255,255,255,0)" />
    </linearGradient>

    <filter id="enhancedShadow" x="-20%" y="-20%" width="150%" height="150%">
      <feDropShadow dx="0" dy="6" stdDeviation="6" flood-color="#000000" flood-opacity="0.3"/> 
    </filter>
  </defs>

  <style>
    .bug-group {
      animation: float 4s ease-in-out infinite;
      transform-origin: center;
    }
    .bug-body {
        animation: breathe 3.5s ease-in-out infinite;
        transform-origin: 140px 140px; 
    }
    .logo-text {
      font-family: 'Segoe UI', Roboto, Helvetica, Arial, sans-serif;
      font-weight: 800; 
      letter-spacing: -1.8px; 
      text-transform: capitalize;
    }
    .scan-overlay {
        animation: scan 3s linear infinite;
    }

    @keyframes float {
      0%, 100% { transform: translateY(0); }
      50% { transform: translateY(-8px); } 
    }
    @keyframes breathe {
      0%, 100% { transform: scale(1); }
      50% { transform: scale(1.02); } 
    }
    @keyframes scan {
        0% { transform: translateY(80px); opacity: 0; }
        5% { opacity: 0.8; }
        95% { opacity: 0.8; }
        100% { transform: translateY(180px); opacity: 0; } 
    }
  </style>

  <g class="bug-group" transform="translate(45, 10)">
    
    <g fill="none" stroke="#94A3B8" stroke-width="6" stroke-linecap="round"> 
      <path d="M110 105 L 60 80" /> 
      <path d="M110 140 L 45 140" />
      <path d="M110 175 L 60 200" />
      <path d="M170 105 L 220 80" />
      <path d="M170 140 L 235 140" />
      <path d="M170 175 L 220 200" />
    </g>

    <path d="M120 90 Q 105 50 85 40" fill="none" stroke="#4F46E5" stroke-width="4" stroke-linecap="round" />
    <path d="M160 90 Q 175 50 195 40" fill="none" stroke="#4F46E5" stroke-width="4" stroke-linecap="round" />

    <g class="bug-body" filter="url(#enhancedShadow)">
      <path d="M105 92 L175 92 A 30 30 0 0 1 175 62 A 30 30 0 0 0 105 62 A 30 30 0 0 1 105 92 Z" fill="#1E293B" /> 
      <rect x="95" y="90" width="90" height="110" rx="45" fill="url(#bodyGradient)" /> 
      
      <line x1="140" y1="90" x2="140" y2="200" stroke="rgba(255,255,255,0.3)" stroke-width="2.5" /> 
      <circle cx="140" cy="125" r="3.5" fill="white" />
      <circle cx="140" cy="170" r="3.5" fill="white" />
      
      <rect x="95" y="80" width="90" height="10" fill="url(#scanLine)" class="scan-overlay" style="pointer-events: none;" />
    </g>
  </g>

  <g transform="translate(280, 160)" filter="url(#enhancedShadow)"> <text x="0" y="0" class="logo-text" font-size="110" fill="url(#textGradientBug)">Bug</text> <text x="210" y="0" class="logo-text" font-size="110" fill="url(#textGradientMohol)">Mohol</text> <text x="5" y="55" font-family="Arial" font-size="20" font-weight="600" fill="#64748B" letter-spacing="7" text-transform="uppercase">Tech Community</text>
  </g>
</svg>
