<?xml version="1.0" standalone="no"?>
<!DOCTYPE svg PUBLIC "-//W3C//DTD SVG 20010904//EN"
 "http://www.w3.org/TR/2001/REC-SVG-20010904/DTD/svg10.dtd">
<svg version="1.0" xmlns="http://www.w3.org/2000/svg"
 width="300.000000pt" height="169.000000pt" viewBox="0 0 300.000000 169.000000"
 preserveAspectRatio="xMidYMid meet">
<metadata>
Created by potrace 1.10, written by Peter Selinger 2001-2011
</metadata>
<g transform="translate(0.000000,169.000000) scale(0.100000,-0.100000)"
fill="#000000" stroke="none">
<path d="M823 1467 c-16 -21 -18 -47 -18 -279 0 -238 1 -257 19 -277 11 -12
27 -21 38 -21 20 0 23 -11 8 -26 -6 -6 -24 -44 -40 -85 -15 -41 -35 -75 -43
-77 -9 -2 -24 22 -43 74 -42 111 -59 124 -154 124 -66 0 -79 -3 -97 -22 -23
-25 -26 -53 -39 -369 l-7 -166 28 -21 c38 -30 105 -30 139 0 20 19 25 36 31
98 3 41 8 76 10 78 2 2 17 -23 34 -56 33 -65 43 -72 101 -72 42 0 75 29 99 89
19 44 29 31 29 -37 0 -93 26 -122 111 -122 28 0 45 7 65 26 14 15 26 31 26 35
0 5 19 -5 43 -21 86 -60 214 -60 290 2 21 16 39 28 40 27 29 -56 56 -71 115
-66 75 8 82 22 82 163 0 108 2 124 18 133 11 6 24 6 35 0 14 -8 17 -26 17
-107 0 -160 17 -192 100 -192 53 0 74 12 90 50 l12 30 33 -29 c83 -73 238 -75
330 -6 25 19 45 31 45 26 0 -5 12 -23 26 -40 23 -28 32 -31 75 -30 37 2 54 8
71 26 21 23 22 27 19 280 -3 301 0 293 -91 293 -77 0 -88 -13 -91 -113 -2 -43
-6 -80 -10 -83 -3 -2 -17 6 -30 17 -40 35 -80 51 -140 56 -99 9 -142 -2 -200
-54 l-51 -47 -19 25 c-10 13 -19 29 -19 36 0 6 30 16 71 23 63 11 76 17 113
55 59 60 66 92 66 317 0 251 9 238 -162 241 -127 2 -162 -5 -221 -46 l-27 -19
-29 31 c-24 26 -35 30 -80 29 -85 0 -97 -22 -99 -178 -3 -124 -12 -146 -52
-120 -11 7 -15 38 -17 132 -3 119 -4 124 -30 147 -24 21 -34 23 -85 18 -55 -5
-59 -4 -72 21 -42 81 -103 102 -297 102 -142 0 -148 -1 -166 -23z m326 -18
c62 -14 98 -43 112 -90 15 -49 -1 -110 -35 -136 l-22 -17 39 -38 c39 -37 39
-38 35 -97 -8 -113 -62 -141 -285 -149 l-153 -5 0 272 0 271 133 0 c72 0 152
-5 176 -11z m981 -299 c-1 -254 -12 -292 -100 -337 -36 -19 -60 -23 -130 -23
-47 1 -97 6 -111 13 -24 11 -25 15 -16 55 7 39 11 43 30 38 53 -15 133 -17
157 -4 20 11 55 75 46 85 -1 2 -20 -7 -42 -18 -138 -72 -271 80 -220 253 30
104 81 129 258 125 l128 -2 0 -185z m-690 40 c0 -139 0 -140 26 -157 23 -15
30 -15 68 -2 l41 14 3 143 3 142 62 0 62 0 -3 -205 -3 -205 -59 0 c-53 0 -60
2 -60 20 0 20 0 20 -32 0 -40 -24 -126 -27 -168 -5 -54 28 -64 63 -68 238 l-4
157 66 0 66 0 0 -140z m-103 -259 c35 -32 55 -41 98 -46 29 -4 57 -5 62 -2 8
5 6 -124 -2 -151 -3 -8 -22 -3 -65 20 -96 50 -195 41 -285 -28 -20 -15 -38
-25 -40 -22 -2 2 -5 31 -6 64 -1 32 -6 71 -10 86 -9 32 -7 34 46 42 46 8 118
40 135 62 17 19 16 19 67 -25z m437 16 c8 -12 5 -21 -9 -37 -13 -14 -22 -42
-25 -79 -4 -48 -8 -56 -25 -56 -17 0 -21 8 -25 54 -5 49 -3 56 22 82 15 15 28
35 28 44 0 20 19 15 34 -8z m-1047 -222 c29 -77 54 -144 55 -148 2 -5 30 60
62 142 l59 151 77 0 78 0 6 -147 c3 -82 9 -202 12 -268 l5 -120 -63 1 -63 2
-3 153 c-1 85 -4 165 -5 179 -3 23 -4 23 -11 5 -5 -11 -31 -77 -59 -147 l-50
-128 -42 0 -42 0 -60 146 -60 145 -6 -98 c-4 -54 -7 -133 -7 -175 l0 -78 -66
0 -66 0 6 63 c3 34 9 153 12 265 l7 203 85 -3 86 -3 53 -140z m932 60 c-2 -47
-2 -85 -1 -85 2 0 17 10 34 21 63 46 164 31 205 -29 15 -23 19 -53 21 -189 l4
-163 -61 0 -61 0 0 130 c0 126 -1 132 -25 155 -28 29 -34 30 -80 11 l-35 -15
0 -140 0 -141 -62 0 -63 0 0 265 0 265 64 0 63 0 -3 -85z m871 -180 l0 -265
-60 0 -60 0 0 265 0 265 60 0 60 0 0 -265z m-1135 126 c81 -36 122 -118 112
-219 -12 -114 -86 -182 -200 -182 -64 0 -102 12 -136 43 -80 73 -82 261 -3
330 52 47 158 60 227 28z m846 7 c103 -35 155 -136 129 -253 -23 -101 -94
-154 -208 -155 -108 0 -180 54 -201 150 -26 123 29 228 137 260 40 12 104 12
143 -2z"/>
<path d="M970 1300 l0 -60 49 0 c86 0 123 28 106 80 -7 21 -19 25 -102 35
l-53 6 0 -61z m99 11 c7 -5 10 -14 7 -20 -9 -14 -53 -15 -61 -1 -15 25 24 40
54 21z"/>
<path d="M970 1079 l0 -62 73 7 c80 7 113 30 101 70 -10 36 -34 46 -106 46
l-68 0 0 -61z m125 1 c0 -18 -62 -27 -77 -12 -18 18 3 33 40 30 25 -2 37 -8
37 -18z"/>
<path d="M1914 1239 c-85 -25 -68 -199 20 -199 59 0 67 14 64 115 -3 88 -4 90
-28 92 -14 1 -39 -3 -56 -8z m45 -42 c11 -14 9 -86 -4 -106 -10 -16 -42 -13
-49 5 -13 33 -6 93 12 103 23 14 28 13 41 -2z"/>
<path d="M1251 624 c-15 -20 -21 -41 -21 -80 0 -67 15 -99 53 -115 75 -31 132
68 96 170 -20 57 -92 71 -128 25z m89 -33 c16 -31 12 -96 -7 -113 -24 -21 -62
-7 -65 24 -5 74 8 108 43 108 10 0 23 -9 29 -19z"/>
<path d="M2109 631 c-21 -17 -24 -28 -24 -90 0 -60 3 -74 22 -93 33 -33 89
-30 119 6 33 37 34 130 3 170 -26 32 -84 36 -120 7z m94 -39 c30 -26 17 -112
-19 -126 -24 -9 -52 2 -59 23 -14 46 -8 94 14 112 23 19 32 18 64 -9z"/>
</g>
</svg>
